<svg xmlns="http://www.w3.org/2000/svg" version="1.1" xmlns:xlink="http://www.w3.org/1999/xlink" xmlns:svgjs="http://svgjs.dev/svgjs" width="1000" height="1000" viewBox="0 0 1000 1000"><rect width="1000" height="1000" fill="#000000"></rect><g transform="matrix(0.7,0,0,0.7,149.57575757575756,440.7189006036782)"><svg viewBox="0 0 396 67" data-background-color="#ffffff" preserveAspectRatio="xMidYMid meet" height="169" width="1000" xmlns="http://www.w3.org/2000/svg" xmlns:xlink="http://www.w3.org/1999/xlink"><g id="tight-bounds" transform="matrix(1,0,0,1,0.2400000000000091,0.07424902412142842)"><svg viewBox="0 0 395.52 66.85150195175713" height="66.85150195175713" width="395.52"><g><svg viewBox="0 0 486.89310794498016 82.29554903944411" height="66.85150195175713" width="395.52"><g transform="matrix(1,0,0,1,0,11.373697443222742)"><svg viewBox="0 0 395.52 59.54815415299863" height="59.54815415299863" width="395.52"><g id="textblocktransform"><svg viewBox="0 0 395.52 59.54815415299863" height="59.54815415299863" width="395.52" id="textblock"><g><svg viewBox="0 0 395.52 38.45184985147178" height="38.45184985147178" width="395.52"><g transform="matrix(1,0,0,1,0,0)"><svg width="395.52" viewBox="3.25 -35.5 370.2699890136719 36" height="38.45184985147178" data-palette-color="#010c80"><path d="M7.9-23.75L7.9 0 3.25 0 3.25-23.85Q3.25-29 6.58-32.25 9.9-35.5 14.8-35.5L14.8-35.5Q20.2-35.5 22.93-32.77 25.65-30.05 25.65-26.1L25.65-26.1Q25.65-21.05 20.95-18.85L20.95-18.85 20.95-18.65Q27.4-16.8 27.4-9.7L27.4-9.7Q27.4 0 15.95 0L15.95 0 9.7 0 9.7-4.4 15.9-4.4Q19.35-4.4 20.95-5.8 22.55-7.2 22.55-10.3L22.55-10.3Q22.55-13 20.83-14.45 19.1-15.9 16.15-15.9L16.15-15.9 11.2-15.9 11.2-20.05 14.4-20.05Q17.1-20.05 19.03-21.53 20.95-23 20.95-25.5L20.95-25.5Q20.95-27.9 19.48-29.5 18-31.1 14.7-31.1L14.7-31.1Q11.7-31.1 9.8-29.23 7.9-27.35 7.9-23.75L7.9-23.75ZM60.5-17.35L60.5-17.35Q60.45-20.15 59.67-22.65 58.9-25.15 57.42-27.03 55.95-28.9 53.85-30 51.75-31.1 49.1-31.1L49.1-31.1Q46.45-31.1 44.35-30 42.25-28.9 40.77-27.03 39.3-25.15 38.52-22.65 37.75-20.15 37.7-17.35L37.7-17.35Q37.75-14.5 38.52-12.05 39.3-9.6 40.77-7.8 42.25-6 44.35-4.95 46.45-3.9 49.1-3.9L49.1-3.9Q51.75-3.9 53.85-4.95 55.95-6 57.42-7.8 58.9-9.6 59.67-12.05 60.45-14.5 60.5-17.35ZM32.65-17.35L32.65-17.35Q32.7-21.5 33.9-24.85 35.1-28.2 37.25-30.58 39.4-32.95 42.4-34.23 45.4-35.5 49.1-35.5L49.1-35.5Q52.75-35.5 55.77-34.23 58.8-32.95 60.95-30.58 63.1-28.2 64.3-24.85 65.5-21.5 65.55-17.35L65.55-17.35Q65.5-13.2 64.32-9.9 63.15-6.6 61-4.3 58.85-2 55.82-0.75 52.8 0.5 49.1 0.5L49.1 0.5Q45.4 0.5 42.37-0.75 39.35-2 37.2-4.3 35.05-6.6 33.87-9.9 32.7-13.2 32.65-17.35ZM99.4-17.35L99.4-17.35Q99.35-20.15 98.57-22.65 97.8-25.15 96.32-27.03 94.85-28.9 92.75-30 90.65-31.1 88-31.1L88-31.1Q85.35-31.1 83.25-30 81.15-28.9 79.67-27.03 78.2-25.15 77.42-22.65 76.65-20.15 76.6-17.35L76.6-17.35Q76.65-14.5 77.42-12.05 78.2-9.6 79.67-7.8 81.15-6 83.25-4.95 85.35-3.9 88-3.9L88-3.9Q90.65-3.9 92.75-4.95 94.85-6 96.32-7.8 97.8-9.6 98.57-12.05 99.35-14.5 99.4-17.35ZM71.55-17.35L71.55-17.35Q71.6-21.5 72.8-24.85 74-28.2 76.15-30.58 78.3-32.95 81.3-34.23 84.3-35.5 88-35.5L88-35.5Q91.65-35.5 94.67-34.23 97.7-32.95 99.85-30.58 102-28.2 103.2-24.85 104.4-21.5 104.45-17.35L104.45-17.35Q104.4-13.2 103.22-9.9 102.05-6.6 99.9-4.3 97.75-2 94.72-0.75 91.7 0.5 88 0.5L88 0.5Q84.3 0.5 81.27-0.75 78.25-2 76.1-4.3 73.95-6.6 72.77-9.9 71.6-13.2 71.55-17.35ZM132.34-6.25L132.34-6.25 132.34 0 127.54 0 127.54-6.25Q127.54-11.9 125.07-14.23 122.59-16.55 115.64-16.6L115.64-16.6 115.64 0 110.94 0 110.94-35 115.64-35 115.64-20.75Q119.34-20.65 120.04-20.55L120.04-20.55 127.09-35 132.19-35 124.29-19.45Q132.34-16.5 132.34-6.25ZM169.64-4.4L169.64 0 149.74 0 149.74-26.65Q149.74-30.35 152.09-32.6L152.09-32.6Q153.69-34.1 155.69-34.55 157.69-35 160.59-35L160.59-35 169.64-35 169.64-30.6 159.94-30.6Q154.44-30.6 154.44-26L154.44-26 154.44-20.3 165.99-20.3 165.99-15.9 154.44-15.9 154.44-4.4 169.64-4.4ZM174.14-34.4L174.14-34.4 174.14-35 178.84-35 178.84-34.4Q178.84-24.4 185.89-20.35L185.89-20.35Q189.84-22.55 191.41-26.05 192.99-29.55 192.99-34.4L192.99-34.4 192.99-35 197.79-35 197.79-33.95Q197.79-23.55 190.09-18.3L190.09-18.3Q197.79-12.95 197.79-2.65L197.79-2.65 197.79 0 192.99 0 192.99-2.2Q192.99-7.05 191.41-10.55 189.84-14.05 185.89-16.25L185.89-16.25Q178.84-12.2 178.84-2.2L178.84-2.2 178.84 0 174.14 0 174.14-2.2Q174.14-12.9 181.84-18.3L181.84-18.3Q174.14-23.6 174.14-34.4ZM203.03-17.5L203.03-17.5Q203.08-25.85 207.66-30.43 212.23-35 220.28-35L220.28-35 223.53-35 223.53-30.6 219.68-30.6Q214.13-30.6 211.16-26.93 208.18-23.25 208.08-17.5L208.08-17.5Q208.18-11.75 211.16-8.08 214.13-4.4 219.68-4.4L219.68-4.4 223.53-4.4 223.53 0 220.28 0Q212.23 0 207.66-4.58 203.08-9.15 203.03-17.5ZM234.48-15.9L234.48 0 229.78 0 229.78-35 234.48-35 234.48-20.3 249.68-20.3 249.68-35 254.38-35 254.38 0 249.68 0 249.68-15.9 234.48-15.9ZM265.33-12.8L265.33 0 260.88 0 260.88-22Q260.88-27.4 264.35-31.2 267.83-35 273.33-35L273.33-35 284.78-35 284.78 0 280.08 0 280.08-30.6 273.33-30.6Q269.68-30.6 267.5-28.45 265.33-26.3 265.33-21.6L265.33-21.6 265.33-17.35Q268.13-20.3 273.33-20.3L273.33-20.3 277.88-20.3 277.88-15.9 273.33-15.9Q270.43-15.9 268.6-15.2 266.78-14.5 265.33-12.8L265.33-12.8ZM296.48-30.6L296.48 0 291.78 0 291.78-35 304.13-35Q310.33-35 313.38-32.23 316.43-29.45 316.43-23.5L316.43-23.5 316.43 0 311.73 0 311.73-24.15Q311.73-27.55 309.65-29.08 307.58-30.6 304.18-30.6L304.18-30.6 296.48-30.6ZM339.32-4.4L339.32-4.4 342.92-4.4 342.92-14.9 337.77-14.9 337.77-19.3 347.62-19.3 347.62 0 339.92 0Q331.87 0 327.3-4.58 322.72-9.15 322.67-17.5L322.67-17.5Q322.72-25.85 327.3-30.43 331.87-35 339.92-35L339.92-35 345.67-35 345.67-30.6 339.32-30.6Q333.77-30.6 330.8-26.93 327.82-23.25 327.72-17.5L327.72-17.5Q327.82-11.75 330.8-8.08 333.77-4.4 339.32-4.4ZM373.52-4.4L373.52 0 353.62 0 353.62-26.65Q353.62-30.35 355.97-32.6L355.97-32.6Q357.57-34.1 359.57-34.55 361.57-35 364.47-35L364.47-35 373.52-35 373.52-30.6 363.82-30.6Q358.32-30.6 358.32-26L358.32-26 358.32-20.3 369.87-20.3 369.87-15.9 358.32-15.9 358.32-4.4 373.52-4.4Z" opacity="1" transform="matrix(1,0,0,1,0,0)" fill="#ffffff" class="undefined-text-0" data-fill-palette-color="primary" id="text-0"></path></svg></g></svg></g><g transform="matrix(1,0,0,1,163.310208,47.52940875700783)"><svg viewBox="0 0 232.209792 12.018745395990798" height="12.018745395990798" width="232.209792"><g transform="matrix(1,0,0,1,0,0)"><svg width="232.209792" viewBox="4 -40.150001525878906 912.8200073242188 47.25" height="12.018745395990798" data-palette-color="#010c80"><path d="M13.3-22.85L22.95-22.85Q24.25-22.85 25.65-22.3 27.05-21.75 28.35-20.85L28.35-20.85 28.3-20.85Q29.6-19.95 30.3-18.4 31-16.85 31-14.85L31-14.85 31-8Q31-3.95 28.3-1.95L28.3-1.95Q27-1 25.63-0.48 24.25 0.05 22.95 0.05L22.95 0.05 12.05 0.05Q10.75 0.05 9.38-0.48 8-1 6.7-1.95L6.7-1.95Q4-3.95 4-8L4-8 4-11.3Q4-13.65 6.95-13.65L6.95-13.65Q9.95-13.65 9.95-11.3L9.95-11.3 9.95-8.4Q9.95-7.1 10.7-6.05 11.45-5 13.3-5L13.3-5 21.7-5Q23.55-5 24.3-6.05 25.05-7.1 25.05-8.4L25.05-8.4 25.05-14.45Q25.05-15.7 24.3-16.78 23.55-17.85 21.7-17.85L21.7-17.85 12.05-17.85Q9.45-17.85 6.7-19.75L6.7-19.75Q4-21.85 4-25.8L4-25.8 4-31.75Q4-33.75 4.7-35.27 5.4-36.8 6.7-37.75L6.7-37.75 6.65-37.75Q7.95-38.6 9.35-39.15 10.75-39.7 12.05-39.7L12.05-39.7 22.95-39.7Q24.25-39.7 25.65-39.15 27.05-38.6 28.35-37.75L28.35-37.75 28.3-37.75Q29.6-36.8 30.3-35.27 31-33.75 31-31.75L31-31.75 31-28.8Q31-26.45 28-26.45L28-26.45Q25.05-26.45 25.05-28.8L25.05-28.8 25.05-31.3Q25.05-32.55 24.3-33.6 23.55-34.65 21.7-34.65L21.7-34.65 13.3-34.65Q11.45-34.65 10.7-33.6 9.95-32.55 9.95-31.3L9.95-31.3 9.95-26.2Q9.95-24.9 10.7-23.88 11.45-22.85 13.3-22.85L13.3-22.85ZM52.45-15.6L48.9-1.55 48.95-1.6Q48.6-0.45 47.6-0.1 46.6 0.25 45.6 0.25L45.6 0.25Q44.65 0.25 43.62-0.1 42.6-0.45 42.3-1.6L42.3-1.6 42.35-1.55 35.8-27.45Q35.2-29.55 37.75-30.25L37.75-30.25Q40.2-30.9 40.9-28.55L40.9-28.55 40.9-28.6 44.95-12.3 46.3-12.3 50.35-28.6Q50.6-29.65 51.47-29.98 52.35-30.3 53.1-30.3L53.1-30.3Q53.95-30.3 54.77-29.93 55.6-29.55 55.9-28.6L55.9-28.6Q56.35-26.8 56.72-25.25 57.1-23.7 57.45-22.25 57.8-20.8 58.12-19.4 58.45-18 58.85-16.5L58.85-16.5 59.95-12.25 61.3-12.25Q62.3-16.3 63.32-20.43 64.35-24.55 65.35-28.6L65.35-28.6 65.3-28.55Q66-30.9 68.45-30.25L68.45-30.25Q71-29.65 70.4-27.45L70.4-27.45 63.9-1.55 63.95-1.6Q63.65-0.45 62.62-0.1 61.6 0.25 60.6 0.25L60.6 0.25Q59.65 0.25 58.65-0.1 57.65-0.45 57.3-1.6L57.3-1.6 57.35-1.55 53.8-15.6 52.45-15.6ZM88.4 0L81.84 0Q80.3 0 78.9-0.43 77.5-0.85 76.2-1.65L76.2-1.65 76.2-1.6Q73.75-3.15 73.75-7.3L73.75-7.3 73.75-9.75Q73.75-11.8 74.47-13.33 75.2-14.85 76.5-15.75L76.5-15.75 76.45-15.75Q77.7-16.6 79.09-17.03 80.5-17.45 81.8-17.45L81.8-17.45 92.84-17.45 92.84-22.1Q92.84-23.35 92.07-24.38 91.3-25.4 89.45-25.4L89.45-25.4 83.59-25.4Q81.7-25.4 80.97-24.48 80.25-23.55 80.25-22.3L80.25-22.3 80.25-21.9Q80.25-19.3 77.45-19.3L77.45-19.3Q74.65-19.3 74.65-21.9L74.65-21.9 74.65-22.35Q74.65-24.4 75.37-25.8 76.09-27.2 77.34-28.15L77.34-28.15 77.3-28.15Q78.59-29 80.02-29.55 81.45-30.1 82.75-30.1L82.75-30.1 90.34-30.1Q91.59-30.1 93.02-29.55 94.45-29 95.7-28.15L95.7-28.15 95.65-28.15Q96.95-27.2 97.65-25.68 98.34-24.15 98.34-22.15L98.34-22.15 98.34-2.1Q98.34 0.3 95.59 0.3L95.59 0.3Q95.05 0.3 94.57 0.25 94.09 0.2 93.72-0.03 93.34-0.25 93.12-0.68 92.9-1.1 92.9-1.8L92.9-1.8 92.84-12.75 82.75-12.75Q81.65-12.75 81.05-12.5 80.45-12.25 80.09-11.7L80.09-11.7Q79.7-10.85 79.52-10.38 79.34-9.9 79.34-9.3L79.34-9.3 79.34-7.35Q79.34-6.05 80.12-5.38 80.9-4.7 82.8-4.7L82.8-4.7 88.4-4.7Q90.25-4.7 90.25-2.35L90.25-2.35Q90.25-1.35 89.8-0.68 89.34 0 88.4 0L88.4 0ZM120.84 0L114.89 0Q113.09 0 112.99-2.35L112.99-2.35Q112.99-4.7 114.89-4.7L114.89-4.7 119.94-4.7Q121.79-4.7 122.57-5.75 123.34-6.8 123.34-8L123.34-8 123.34-22.1Q123.34-23.35 122.57-24.43 121.79-25.5 119.89-25.4L119.89-25.4 110.29-25.4 110.29 4.65Q110.29 7 107.54 7L107.54 7Q104.79 7 104.79 4.6L104.79 4.6 104.79-27.15Q104.79-28.9 105.69-29.5 106.59-30.1 107.89-30.1L107.89-30.1 120.84-30.1Q122.14-30.1 123.47-29.65 124.79-29.2 126.19-28.4L126.19-28.4Q127.39-27.55 128.12-26.03 128.84-24.5 128.84-22.45L128.84-22.45 128.84-7.65Q128.84-3.55 126.19-1.8L126.19-1.8Q123.39 0 120.84 0L120.84 0ZM135.19 3.95L135.19 3.95Q136.79 3.1 137.69 2.27 138.59 1.45 138.69 0.05L138.69 0.05Q136.99-0.25 135.84-1.4 134.69-2.55 134.69-4.1L134.69-4.1Q134.69-5.75 135.84-6.93 136.99-8.1 138.69-8.1L138.69-8.1Q140.34-8.1 141.49-6.98 142.64-5.85 142.74-4.1L142.74-4.1Q142.99 0.35 140.94 2.3L140.94 2.3Q139.99 3.35 138.97 4.08 137.94 4.8 137.04 5.1L137.04 5.1Q136.29 5.4 135.59 5.4L135.59 5.4Q135.44 5.4 135.22 5.3 134.99 5.2 134.84 5.1L134.84 5.1Q134.39 4.4 135.19 3.95ZM176.69-11.3L176.69-8Q176.69-3.95 173.99-1.95L173.99-1.95Q172.69-1 171.31-0.48 169.94 0.05 168.64 0.05L168.64 0.05 157.74 0.05Q156.44 0.05 155.06-0.48 153.69-1 152.39-1.95L152.39-1.95Q151.09-2.95 150.39-4.42 149.69-5.9 149.69-8L149.69-8 149.69-31.75Q149.69-33.75 150.39-35.27 151.09-36.8 152.39-37.75L152.39-37.75 152.34-37.75Q153.64-38.6 155.04-39.15 156.44-39.7 157.74-39.7L157.74-39.7 168.64-39.7Q169.94-39.7 171.34-39.15 172.74-38.6 174.04-37.75L174.04-37.75 173.99-37.75Q175.29-36.8 175.99-35.27 176.69-33.75 176.69-31.75L176.69-31.75 176.69-28.3Q176.69-25.9 173.69-25.9L173.69-25.9Q170.74-25.9 170.74-28.3L170.74-28.3 170.74-31.3Q170.74-32.55 169.99-33.6 169.24-34.65 167.39-34.65L167.39-34.65 158.99-34.65Q157.14-34.65 156.39-33.6 155.64-32.55 155.64-31.3L155.64-31.3 155.64-8.4Q155.64-7.1 156.39-6.05 157.14-5 158.99-5L158.99-5 167.39-5Q169.24-5 169.99-6.05 170.74-7.1 170.74-8.4L170.74-8.4 170.74-11.3Q170.74-13.65 173.69-13.65L173.69-13.65Q176.69-13.65 176.69-11.3L176.69-11.3ZM191.49-30.1L199.49-30.1Q200.78-30.1 202.16-29.55 203.53-29 204.84-28.15L204.84-28.15 204.78-28.15Q206.09-27.2 206.78-25.68 207.49-24.15 207.49-22.15L207.49-22.15 207.49-7.95Q207.49-3.85 204.78-1.9L204.78-1.9Q202.13 0 199.49 0L199.49 0 191.49 0Q190.19 0 188.84-0.45 187.49-0.9 186.19-1.9L186.19-1.9Q183.49-3.8 183.49-7.95L183.49-7.95 183.49-22.15Q183.49-24.15 184.19-25.68 184.88-27.2 186.19-28.15L186.19-28.15 186.13-28.15Q187.38-29 188.78-29.55 190.19-30.1 191.49-30.1L191.49-30.1ZM192.38-4.7L198.59-4.7Q200.44-4.7 201.21-5.75 201.99-6.8 201.99-8L201.99-8 201.99-22.1Q201.99-23.35 201.21-24.38 200.44-25.4 198.59-25.4L198.59-25.4 192.38-25.4Q190.53-25.4 189.76-24.38 188.99-23.35 188.99-22.1L188.99-22.1 188.99-8Q188.99-6.8 189.76-5.75 190.53-4.7 192.38-4.7L192.38-4.7ZM219.28-21.75L219.28-2.1Q219.28 0.3 216.53 0.3L216.53 0.3Q213.78 0.3 213.78-2.1L213.78-2.1 213.78-22.2Q213.78-24.25 214.43-25.75 215.08-27.25 216.48-28.2L216.48-28.2Q219.13-30.1 221.78-30.1L221.78-30.1 229.83-30.1Q232.38-30.1 235.13-28.2L235.13-28.2Q237.83-26.3 237.83-22.2L237.83-22.2 237.83-2.1Q237.83 0.3 235.08 0.3L235.08 0.3Q232.33 0.3 232.33-2.1L232.33-2.1 232.33-21.75Q232.33-23.05 231.53-24.25L231.53-24.25 231.58-24.2Q230.93-25.4 228.93-25.4L228.93-25.4 222.68-25.4Q220.63-25.4 219.98-24.2L219.98-24.2Q219.28-23.15 219.28-21.75L219.28-21.75ZM249.78-21.75L249.78-2.1Q249.78 0.3 247.03 0.3L247.03 0.3Q244.28 0.3 244.28-2.1L244.28-2.1 244.28-22.2Q244.28-24.25 244.93-25.75 245.58-27.25 246.98-28.2L246.98-28.2Q249.63-30.1 252.28-30.1L252.28-30.1 260.33-30.1Q262.88-30.1 265.63-28.2L265.63-28.2Q268.33-26.3 268.33-22.2L268.33-22.2 268.33-2.1Q268.33 0.3 265.58 0.3L265.58 0.3Q262.83 0.3 262.83-2.1L262.83-2.1 262.83-21.75Q262.83-23.05 262.03-24.25L262.03-24.25 262.08-24.2Q261.43-25.4 259.43-25.4L259.43-25.4 253.18-25.4Q251.13-25.4 250.48-24.2L250.48-24.2Q249.78-23.15 249.78-21.75L249.78-21.75ZM280.28-22.15L280.28-8Q280.28-6.8 281.05-5.75 281.83-4.7 283.68-4.7L283.68-4.7 289.93-4.7Q291.78-4.7 292.55-5.63 293.33-6.55 293.33-7.75L293.33-7.75 293.33-8.3Q293.33-10.65 296.08-10.65L296.08-10.65Q298.83-10.65 298.83-8.3L298.83-8.3 298.83-7.7Q298.83-5.6 298.15-4.25 297.48-2.9 296.13-1.9L296.13-1.9Q293.48 0 290.83 0L290.83 0 282.43 0Q279.78 0 277.28-1.9L277.28-1.9Q276.08-2.9 275.43-4.42 274.78-5.95 274.78-7.95L274.78-7.95 274.78-22.2Q274.78-26.25 277.28-28.2L277.28-28.2Q278.53-29.1 279.85-29.63 281.18-30.15 282.43-30.15L282.43-30.15 290.83-30.15Q292.03-30.15 293.48-29.68 294.93-29.2 296.18-28.4L296.18-28.4Q297.38-27.55 298.1-26.05 298.83-24.55 298.83-22.5L298.83-22.5 298.83-15.75Q298.83-14.6 298.15-13.7 297.48-12.8 295.68-12.8L295.68-12.8 284.88-12.8Q283.08-12.8 282.98-15.15L282.98-15.15Q282.98-17.5 284.88-17.5L284.88-17.5 293.38-17.5 293.33-22.15Q293.33-23.4 292.55-24.43 291.78-25.45 289.93-25.45L289.93-25.45 283.68-25.45Q281.83-25.45 281.05-24.43 280.28-23.4 280.28-22.15L280.28-22.15ZM329.23-10.3L329.23-7.95Q329.23-3.85 326.52-1.9L326.52-1.9Q323.88 0 321.23 0L321.23 0 312.82 0Q310.18 0 307.68-1.9L307.68-1.9Q306.48-2.9 305.82-4.42 305.18-5.95 305.18-7.95L305.18-7.95 305.18-22.2Q305.18-26.25 307.68-28.2L307.68-28.2Q308.93-29.1 310.25-29.63 311.57-30.15 312.82-30.15L312.82-30.15 321.23-30.15Q322.43-30.15 323.88-29.68 325.32-29.2 326.57-28.4L326.57-28.4Q327.77-27.55 328.5-26.05 329.23-24.55 329.23-22.5L329.23-22.5 329.23-20Q329.23-17.6 326.48-17.6L326.48-17.6Q323.73-17.6 323.73-20L323.73-20 323.73-22.15Q323.73-23.4 322.95-24.43 322.18-25.45 320.32-25.45L320.32-25.45 314.07-25.45Q312.23-25.45 311.45-24.43 310.68-23.4 310.68-22.15L310.68-22.15 310.68-8Q310.68-6.8 311.45-5.75 312.23-4.7 314.07-4.7L314.07-4.7 320.32-4.7Q322.18-4.7 322.95-5.75 323.73-6.8 323.73-8L323.73-8 323.73-10.3Q323.73-12.65 326.48-12.65L326.48-12.65Q329.23-12.65 329.23-10.3L329.23-10.3ZM346.17-25.4L342.02-25.4 342.02-7.2Q342.02-5.9 342.57-5.2 343.12-4.5 344.92-4.5L344.92-4.5 346.22-4.5Q348.17-4.5 348.07-2.2L348.07-2.2Q348.07 0.15 346.22 0.15L346.22 0.15 344.57 0.15Q342.97 0.15 341.57-0.28 340.17-0.7 338.87-1.5L338.87-1.5 338.87-1.45Q336.42-3.05 336.42-7.15L336.42-7.15 336.42-25.4 334.47-25.4Q332.67-25.4 332.57-27.75L332.57-27.75Q332.57-30.1 334.47-30.1L334.47-30.1 336.42-30.1 336.42-35.45Q336.42-37.85 339.27-37.85L339.27-37.85Q342.02-37.85 342.02-35.45L342.02-35.45 342.02-30.1 346.17-30.1Q348.12-30.1 348.02-27.75L348.02-27.75Q348.02-25.4 346.17-25.4L346.17-25.4ZM392.02-1.2L381.02-34.8 370.07-1.2 370.07-1.25Q369.77-0.5 369.24-0.03 368.72 0.45 367.97 0.45L367.97 0.45Q367.57 0.45 367.19 0.38 366.82 0.3 366.42 0.2L366.42 0.2 366.47 0.2Q363.62-0.7 364.37-3L364.37-3 375.77-37.65Q376.02-38.45 376.64-39 377.27-39.55 378.12-39.65L378.12-39.65Q378.97-39.8 379.77-39.88 380.57-39.95 381.02-39.95L381.02-39.95Q381.47-39.95 382.27-39.88 383.07-39.8 383.92-39.7L383.92-39.7Q384.62-39.6 385.29-38.95 385.97-38.3 386.32-37.65L386.32-37.65Q389.12-29.05 391.99-20.33 394.87-11.6 397.67-3L397.67-3Q398.37-0.7 395.57 0.2L395.57 0.2Q395.17 0.3 394.84 0.38 394.52 0.45 394.12 0.45L394.12 0.45Q393.42 0.45 392.84-0.03 392.27-0.5 392.02-1.25L392.02-1.25 392.02-1.2ZM384.77-12L384.77-12Q384.77-10.4 383.64-9.28 382.52-8.15 380.92-8.15L380.92-8.15Q379.32-8.15 378.22-9.28 377.12-10.4 377.12-12L377.12-12Q377.12-13.6 378.22-14.73 379.32-15.85 380.92-15.85L380.92-15.85Q382.52-15.85 383.64-14.73 384.77-13.6 384.77-12ZM407.22-21.75L407.22-2.1Q407.22 0.3 404.47 0.3L404.47 0.3Q401.72 0.3 401.72-2.1L401.72-2.1 401.72-22.2Q401.72-24.25 402.37-25.75 403.02-27.25 404.42-28.2L404.42-28.2Q407.06-30.1 409.72-30.1L409.72-30.1 417.77-30.1Q420.31-30.1 423.06-28.2L423.06-28.2Q425.77-26.3 425.77-22.2L425.77-22.2 425.77-2.1Q425.77 0.3 423.02 0.3L423.02 0.3Q420.27 0.3 420.27-2.1L420.27-2.1 420.27-21.75Q420.27-23.05 419.47-24.25L419.47-24.25 419.52-24.2Q418.87-25.4 416.87-25.4L416.87-25.4 410.62-25.4Q408.56-25.4 407.92-24.2L407.92-24.2Q407.22-23.15 407.22-21.75L407.22-21.75ZM450.76-1.75L450.76-25.4 441.11-25.4Q439.06-25.4 438.41-24.2L438.41-24.2Q437.71-23.15 437.71-21.75L437.71-21.75 437.71-7.35Q437.71-6.05 438.51-5.38 439.31-4.7 441.16-4.7L441.16-4.7 446.31-4.7Q448.11-4.7 448.11-2.35L448.11-2.35Q448.11-1.35 447.69-0.68 447.26 0 446.31 0L446.31 0 440.26 0Q437.11 0 434.66-1.6L434.66-1.6Q432.21-3.1 432.21-7.3L432.21-7.3 432.21-22.2Q432.21-24.25 432.86-25.75 433.51-27.25 434.91-28.2L434.91-28.2Q437.56-30.1 440.21-30.1L440.21-30.1 450.76-30.1 450.76-37.6Q450.76-40 453.51-40L453.51-40Q456.26-40 456.26-37.6L456.26-37.6 456.26-2.1Q456.26 0.3 453.51 0.3L453.51 0.3Q452.46 0.3 451.61-0.08 450.76-0.45 450.76-1.75L450.76-1.75ZM505.26-11.3L505.26-8Q505.26-3.95 502.56-1.95L502.56-1.95Q501.26-1 499.88-0.48 498.51 0.05 497.21 0.05L497.21 0.05 486.31 0.05Q485.01 0.05 483.63-0.48 482.26-1 480.96-1.95L480.96-1.95Q479.66-2.95 478.96-4.42 478.26-5.9 478.26-8L478.26-8 478.26-31.75Q478.26-33.75 478.96-35.27 479.66-36.8 480.96-37.75L480.96-37.75 480.91-37.75Q482.21-38.6 483.61-39.15 485.01-39.7 486.31-39.7L486.31-39.7 497.21-39.7Q498.51-39.7 499.91-39.15 501.31-38.6 502.61-37.75L502.61-37.75 502.56-37.75Q503.86-36.8 504.56-35.27 505.26-33.75 505.26-31.75L505.26-31.75 505.26-28.3Q505.26-25.9 502.26-25.9L502.26-25.9Q499.31-25.9 499.31-28.3L499.31-28.3 499.31-31.3Q499.31-32.55 498.56-33.6 497.81-34.65 495.96-34.65L495.96-34.65 487.56-34.65Q485.71-34.65 484.96-33.6 484.21-32.55 484.21-31.3L484.21-31.3 484.21-8.4Q484.21-7.1 484.96-6.05 485.71-5 487.56-5L487.56-5 495.96-5Q497.81-5 498.56-6.05 499.31-7.1 499.31-8.4L499.31-8.4 499.31-11.3Q499.31-13.65 502.26-13.65L502.26-13.65Q505.26-13.65 505.26-11.3L505.26-11.3ZM517.55-25.4L517.55-2.1Q517.55 0.3 514.8 0.3L514.8 0.3Q512.05 0.3 512.05-2.1L512.05-2.1 512.05-37.6Q512.05-40 514.8-40L514.8-40Q517.55-40 517.55-37.6L517.55-37.6 517.55-30.1 528.11-30.1Q530.65-30.1 533.4-28.2L533.4-28.2Q536.11-26.3 536.11-22.2L536.11-22.2 536.11-2.1Q536.11 0.3 533.36 0.3L533.36 0.3Q530.61 0.3 530.61-2.1L530.61-2.1 530.61-21.75Q530.61-23.05 529.8-24.25L529.8-24.25 529.86-24.2Q529.21-25.4 527.21-25.4L527.21-25.4 517.55-25.4ZM556.8 0L550.25 0Q548.7 0 547.3-0.43 545.9-0.85 544.6-1.65L544.6-1.65 544.6-1.6Q542.15-3.15 542.15-7.3L542.15-7.3 542.15-9.75Q542.15-11.8 542.88-13.33 543.6-14.85 544.9-15.75L544.9-15.75 544.85-15.75Q546.1-16.6 547.5-17.03 548.9-17.45 550.2-17.45L550.2-17.45 561.25-17.45 561.25-22.1Q561.25-23.35 560.48-24.38 559.7-25.4 557.85-25.4L557.85-25.4 552-25.4Q550.1-25.4 549.38-24.48 548.65-23.55 548.65-22.3L548.65-22.3 548.65-21.9Q548.65-19.3 545.85-19.3L545.85-19.3Q543.05-19.3 543.05-21.9L543.05-21.9 543.05-22.35Q543.05-24.4 543.78-25.8 544.5-27.2 545.75-28.15L545.75-28.15 545.7-28.15Q547-29 548.43-29.55 549.85-30.1 551.15-30.1L551.15-30.1 558.75-30.1Q560-30.1 561.43-29.55 562.85-29 564.1-28.15L564.1-28.15 564.05-28.15Q565.35-27.2 566.05-25.68 566.75-24.15 566.75-22.15L566.75-22.15 566.75-2.1Q566.75 0.3 564 0.3L564 0.3Q563.45 0.3 562.98 0.25 562.5 0.2 562.13-0.03 561.75-0.25 561.53-0.68 561.3-1.1 561.3-1.8L561.3-1.8 561.25-12.75 551.15-12.75Q550.05-12.75 549.45-12.5 548.85-12.25 548.5-11.7L548.5-11.7Q548.1-10.85 547.93-10.38 547.75-9.9 547.75-9.3L547.75-9.3 547.75-7.35Q547.75-6.05 548.53-5.38 549.3-4.7 551.2-4.7L551.2-4.7 556.8-4.7Q558.65-4.7 558.65-2.35L558.65-2.35Q558.65-1.35 558.2-0.68 557.75 0 556.8 0L556.8 0ZM578.7-21.75L578.7-2.1Q578.7 0.3 575.95 0.3L575.95 0.3Q573.2 0.3 573.2-2.1L573.2-2.1 573.2-22.2Q573.2-24.25 573.85-25.75 574.5-27.25 575.9-28.2L575.9-28.2Q578.55-30.1 581.2-30.1L581.2-30.1 589.25-30.1Q591.8-30.1 594.55-28.2L594.55-28.2Q597.25-26.3 597.25-22.2L597.25-22.2 597.25-2.1Q597.25 0.3 594.5 0.3L594.5 0.3Q591.75 0.3 591.75-2.1L591.75-2.1 591.75-21.75Q591.75-23.05 590.95-24.25L590.95-24.25 591-24.2Q590.35-25.4 588.35-25.4L588.35-25.4 582.1-25.4Q580.05-25.4 579.4-24.2L579.4-24.2Q578.7-23.15 578.7-21.75L578.7-21.75ZM617.8-3.5L611.75-3.5Q610.45-3.5 609.07-3.95 607.7-4.4 606.4-5.25L606.4-5.25Q603.7-7 603.7-11.15L603.7-11.15 603.7-22.45Q603.7-24.55 604.42-26.05 605.15-27.55 606.4-28.4L606.4-28.4Q607.7-29.2 609.05-29.65 610.4-30.1 611.7-30.1L611.7-30.1 620.1-30.1Q621.35-30.1 622.7-29.55 624.05-29 625.2-28.15L625.2-28.15Q626.35-27.2 627.05-25.65 627.75-24.1 627.75-22.15L627.75-22.15 627.75-0.95Q627.75 1.15 627.07 2.63 626.4 4.1 625.2 5.1L625.2 5.1Q624.05 6.05 622.72 6.58 621.4 7.1 620.1 7.1L620.1 7.1 611.7 7.1Q609.05 7.1 606.35 5.55L606.35 5.55Q604.95 4.75 604.32 3.5 603.7 2.25 603.7 0.6L603.7 0.6 603.7 0Q603.7-1 604.35-1.6 605-2.2 606.4-2.2L606.4-2.2Q609.2-1.9 609.2 0L609.2 0 609.2 0.55Q609.2 1.1 609.97 1.75 610.75 2.4 612.6 2.4L612.6 2.4 618.85 2.4Q620.7 2.4 621.47 1.35 622.25 0.3 622.25-1L622.25-1 622.25-22.1Q622.25-23.35 621.47-24.38 620.7-25.4 618.85-25.4L618.85-25.4 612.6-25.4Q610.75-25.4 609.97-24.38 609.2-23.35 609.2-22.1L609.2-22.1 609.2-11.55Q609.2-10.3 609.97-9.22 610.75-8.15 612.6-8.15L612.6-8.15 617.8-8.15Q619.6-8.15 619.6-5.85L619.6-5.85Q619.6-4.8 619.17-4.15 618.75-3.5 617.8-3.5L617.8-3.5ZM639.94-22.15L639.94-8Q639.94-6.8 640.72-5.75 641.49-4.7 643.34-4.7L643.34-4.7 649.59-4.7Q651.44-4.7 652.22-5.63 652.99-6.55 652.99-7.75L652.99-7.75 652.99-8.3Q652.99-10.65 655.74-10.65L655.74-10.65Q658.49-10.65 658.49-8.3L658.49-8.3 658.49-7.7Q658.49-5.6 657.82-4.25 657.14-2.9 655.79-1.9L655.79-1.9Q653.14 0 650.49 0L650.49 0 642.09 0Q639.44 0 636.94-1.9L636.94-1.9Q635.74-2.9 635.09-4.42 634.44-5.95 634.44-7.95L634.44-7.95 634.44-22.2Q634.44-26.25 636.94-28.2L636.94-28.2Q638.19-29.1 639.52-29.63 640.84-30.15 642.09-30.15L642.09-30.15 650.49-30.15Q651.69-30.15 653.14-29.68 654.59-29.2 655.84-28.4L655.84-28.4Q657.04-27.55 657.77-26.05 658.49-24.55 658.49-22.5L658.49-22.5 658.49-15.75Q658.49-14.6 657.82-13.7 657.14-12.8 655.34-12.8L655.34-12.8 644.54-12.8Q642.74-12.8 642.64-15.15L642.64-15.15Q642.64-17.5 644.54-17.5L644.54-17.5 653.04-17.5 652.99-22.15Q652.99-23.4 652.22-24.43 651.44-25.45 649.59-25.45L649.59-25.45 643.34-25.45Q641.49-25.45 640.72-24.43 639.94-23.4 639.94-22.15L639.94-22.15ZM693.64-34.65L693.64-2Q693.64 0.4 690.64 0.4L690.64 0.4Q687.69 0.4 687.69-2L687.69-2 687.69-34.65 678.94-34.65Q677.14-34.65 677.04-37.2L677.04-37.2Q677.04-39.7 678.94-39.7L678.94-39.7 702.39-39.7Q704.29-39.7 704.19-37.2L704.19-37.2Q704.19-34.65 702.39-34.65L702.39-34.65 693.64-34.65ZM713.69-25.4L713.69-2.1Q713.69 0.3 710.94 0.3L710.94 0.3Q708.19 0.3 708.19-2.1L708.19-2.1 708.19-37.6Q708.19-40 710.94-40L710.94-40Q713.69-40 713.69-37.6L713.69-37.6 713.69-30.1 724.24-30.1Q726.79-30.1 729.54-28.2L729.54-28.2Q732.24-26.3 732.24-22.2L732.24-22.2 732.24-2.1Q732.24 0.3 729.49 0.3L729.49 0.3Q726.74 0.3 726.74-2.1L726.74-2.1 726.74-21.75Q726.74-23.05 725.94-24.25L725.94-24.25 725.99-24.2Q725.34-25.4 723.34-25.4L723.34-25.4 713.69-25.4ZM744.33-22.15L744.33-8Q744.33-6.8 745.11-5.75 745.88-4.7 747.73-4.7L747.73-4.7 753.98-4.7Q755.83-4.7 756.61-5.63 757.38-6.55 757.38-7.75L757.38-7.75 757.38-8.3Q757.38-10.65 760.13-10.65L760.13-10.65Q762.88-10.65 762.88-8.3L762.88-8.3 762.88-7.7Q762.88-5.6 762.21-4.25 761.53-2.9 760.18-1.9L760.18-1.9Q757.53 0 754.88 0L754.88 0 746.48 0Q743.83 0 741.33-1.9L741.33-1.9Q740.13-2.9 739.48-4.42 738.83-5.95 738.83-7.95L738.83-7.95 738.83-22.2Q738.83-26.25 741.33-28.2L741.33-28.2Q742.58-29.1 743.91-29.63 745.23-30.15 746.48-30.15L746.48-30.15 754.88-30.15Q756.08-30.15 757.53-29.68 758.98-29.2 760.23-28.4L760.23-28.4Q761.43-27.55 762.16-26.05 762.88-24.55 762.88-22.5L762.88-22.5 762.88-15.75Q762.88-14.6 762.21-13.7 761.53-12.8 759.73-12.8L759.73-12.8 748.93-12.8Q747.13-12.8 747.03-15.15L747.03-15.15Q747.03-17.5 748.93-17.5L748.93-17.5 757.43-17.5 757.38-22.15Q757.38-23.4 756.61-24.43 755.83-25.45 753.98-25.45L753.98-25.45 747.73-25.45Q745.88-25.45 745.11-24.43 744.33-23.4 744.33-22.15L744.33-22.15ZM813.83-11.25L820.28-38.05 820.23-38Q820.53-39.1 821.4-39.6 822.28-40.1 823.73-39.85L823.73-39.85Q825.18-39.6 825.8-38.95 826.43-38.3 826.08-37.15L826.08-37.15 817.08-1.3 817.08-1.35Q816.83-0.5 815.95-0.05 815.08 0.4 814.13 0.4L814.13 0.4Q813.03 0.4 812.05 0.08 811.08-0.25 810.83-1.25L810.83-1.25 810.88-1.2 804.73-25.6 803.38-25.6 797.28-1.25Q797.03-0.4 796.03 0 795.03 0.4 793.98 0.4L793.98 0.4Q792.68 0.4 791.9 0.03 791.13-0.35 790.88-1.3L790.88-1.3 790.93-1.25 781.93-37.15Q781.68-38.15 782.38-38.88 783.08-39.6 784.38-39.85L784.38-39.85Q787.18-40.3 787.78-38L787.78-38 787.73-38.05 789.98-29Q790.43-27.2 790.88-25.33 791.33-23.45 791.88-21.33 792.43-19.2 793.08-16.7 793.73-14.2 794.53-11.1L794.53-11.1 800.93-38.1Q801.18-39.2 802.08-39.55 802.98-39.9 804.08-39.9L804.08-39.9Q805.08-39.9 806.03-39.53 806.98-39.15 807.23-38L807.23-38 813.83-11.25ZM838.18-30.1L846.18-30.1Q847.48-30.1 848.85-29.55 850.23-29 851.53-28.15L851.53-28.15 851.48-28.15Q852.78-27.2 853.48-25.68 854.18-24.15 854.18-22.15L854.18-22.15 854.18-7.95Q854.18-3.85 851.48-1.9L851.48-1.9Q848.83 0 846.18 0L846.18 0 838.18 0Q836.88 0 835.53-0.45 834.18-0.9 832.88-1.9L832.88-1.9Q830.18-3.8 830.18-7.95L830.18-7.95 830.18-22.15Q830.18-24.15 830.88-25.68 831.58-27.2 832.88-28.15L832.88-28.15 832.83-28.15Q834.08-29 835.48-29.55 836.88-30.1 838.18-30.1L838.18-30.1ZM839.08-4.7L845.28-4.7Q847.13-4.7 847.9-5.75 848.68-6.8 848.68-8L848.68-8 848.68-22.1Q848.68-23.35 847.9-24.38 847.13-25.4 845.28-25.4L845.28-25.4 839.08-25.4Q837.23-25.4 836.45-24.38 835.68-23.35 835.68-22.1L835.68-22.1 835.68-8Q835.68-6.8 836.45-5.75 837.23-4.7 839.08-4.7L839.08-4.7ZM865.87-22.75L865.87-2.1Q865.87 0.3 863.12 0.3L863.12 0.3Q860.27 0.3 860.27-2.1L860.27-2.1 860.27-22.8Q860.27-26.9 862.72-28.5L862.72-28.5Q865.17-30.1 868.37-30.1L868.37-30.1 874.07-30.1Q875.92-30.1 875.92-27.75L875.92-27.75Q876.02-25.4 874.07-25.4L874.07-25.4 868.77-25.4Q866.97-25.4 866.42-24.7 865.87-24 865.87-22.75L865.87-22.75ZM885.87-37.8L885.87-1.95Q885.87 0.4 883.12 0.4L883.12 0.4Q880.32 0.4 880.32-1.95L880.32-1.95 880.32-37.8Q880.32-40.15 883.12-40.15L883.12-40.15Q885.87-40.15 885.87-37.8L885.87-37.8ZM911.32-1.75L911.32-25.4 901.67-25.4Q899.62-25.4 898.97-24.2L898.97-24.2Q898.27-23.15 898.27-21.75L898.27-21.75 898.27-7.35Q898.27-6.05 899.07-5.38 899.87-4.7 901.72-4.7L901.72-4.7 906.87-4.7Q908.67-4.7 908.67-2.35L908.67-2.35Q908.67-1.35 908.24-0.68 907.82 0 906.87 0L906.87 0 900.82 0Q897.67 0 895.22-1.6L895.22-1.6Q892.77-3.1 892.77-7.3L892.77-7.3 892.77-22.2Q892.77-24.25 893.42-25.75 894.07-27.25 895.47-28.2L895.47-28.2Q898.12-30.1 900.77-30.1L900.77-30.1 911.32-30.1 911.32-37.6Q911.32-40 914.07-40L914.07-40Q916.82-40 916.82-37.6L916.82-37.6 916.82-2.1Q916.82 0.3 914.07 0.3L914.07 0.3Q913.02 0.3 912.17-0.08 911.32-0.45 911.32-1.75L911.32-1.75Z" opacity="1" transform="matrix(1,0,0,1,0,0)" fill="#ffffff" class="undefined-text-1" data-fill-palette-color="secondary" id="text-1"></path></svg></g></svg></g></svg></g></svg></g><g transform="matrix(1,0,0,1,404.59755890553606,0)"><svg viewBox="0 0 82.29554903944411 82.29554903944411" height="82.29554903944411" width="82.29554903944411"><g data-palette-color="#010c80"><rect width="22.494116737448056" height="82.29554903944411" fill="#ffffff" stroke="transparent" data-fill-palette-color="accent" x="0" fill-opacity="1"></rect><rect width="22.494116737448056" height="82.29554903944411" fill="#ffffff" stroke="transparent" data-fill-palette-color="accent" x="27.431849679814704" fill-opacity="0.75"></rect><rect width="22.494116737448056" height="82.29554903944411" fill="#ffffff" stroke="transparent" data-fill-palette-color="accent" x="54.86369935962941" fill-opacity="0.5"></rect></g></svg></g></svg></g><defs></defs></svg><rect width="395.52" height="66.85150195175713" fill="none" stroke="none" visibility="hidden"></rect></g></svg></g></svg>